<?xml version="1.0" encoding="UTF-8" standalone="no"?>
<!DOCTYPE svg PUBLIC "-//W3C//DTD SVG 1.1//EN" "http://www.w3.org/Graphics/SVG/1.1/DTD/svg11.dtd">
<svg width="100%" height="100%" viewBox="0 0 342 342" version="1.1" xmlns="http://www.w3.org/2000/svg" xmlns:xlink="http://www.w3.org/1999/xlink" xml:space="preserve" xmlns:serif="http://www.serif.com/" style="fill-rule:evenodd;clip-rule:evenodd;stroke-linejoin:round;stroke-miterlimit:2;">
    <g transform="matrix(1,0,0,1,-11520,-6912)">
        <g id="Page-84" serif:id="Page 84" transform="matrix(2.66667,0,0,2.66667,11520,6912)">
            <rect x="0" y="0" width="128" height="128" style="fill:none;"/>
            <g id="Layer-1" serif:id="Layer 1">
                <g transform="matrix(1,0,0,1,11.5996,51.5)">
                    <path d="M0,25C-2.261,25 -4.1,23.161 -4.1,20.9L-4.1,4.1C-4.1,1.839 -2.261,0 0,0L104.801,0C107.062,0 108.9,1.839 108.9,4.1L108.9,20.9C108.9,23.161 107.062,25 104.801,25L0,25Z" style="fill:rgb(0,104,55);fill-rule:nonzero;"/>
                </g>
                <g transform="matrix(1,0,0,1,116.4,77)">
                    <path d="M0,-26L-104.8,-26C-107.336,-26 -109.4,-23.936 -109.4,-21.4L-109.4,-4.6C-109.4,-2.064 -107.336,0 -104.8,0L0,0C2.536,0 4.6,-2.064 4.6,-4.6L4.6,-21.4C4.6,-23.936 2.536,-26 0,-26M0,-25C1.988,-25 3.6,-23.388 3.6,-21.4L3.6,-4.6C3.6,-2.612 1.988,-1 0,-1L-104.8,-1C-106.788,-1 -108.4,-2.612 -108.4,-4.6L-108.4,-21.4C-108.4,-23.388 -106.788,-25 -104.8,-25L0,-25" style="fill:white;fill-rule:nonzero;"/>
                </g>
                <g transform="matrix(14.4,0,0,14.4,27.4316,68.6504)">
                    <path d="M0.059,-0.69L0.059,-0L0.298,-0C0.375,-0 0.437,-0.022 0.482,-0.065C0.527,-0.108 0.55,-0.178 0.55,-0.275L0.55,-0.416C0.55,-0.513 0.528,-0.583 0.484,-0.626C0.439,-0.669 0.379,-0.69 0.302,-0.69L0.059,-0.69ZM0.301,-0.114L0.19,-0.114L0.19,-0.576L0.301,-0.576C0.341,-0.576 0.371,-0.563 0.39,-0.537C0.409,-0.51 0.419,-0.468 0.419,-0.409L0.419,-0.276C0.419,-0.22 0.409,-0.179 0.39,-0.153C0.37,-0.127 0.34,-0.114 0.301,-0.114Z" style="fill:white;fill-rule:nonzero;"/>
                </g>
                <g transform="matrix(14.4,0,0,14.4,35.8281,68.6504)">
                    <path d="M0.059,-0.52L0.059,-0L0.182,-0L0.182,-0.52L0.059,-0.52ZM0.057,-0.69L0.057,-0.591L0.183,-0.591L0.183,-0.69L0.057,-0.69Z" style="fill:white;fill-rule:nonzero;"/>
                </g>
                <g transform="matrix(14.4,0,0,14.4,39.271,68.6504)">
                    <path d="M0.09,-0.038C0.126,-0.009 0.174,0.006 0.233,0.006C0.295,0.006 0.345,-0.009 0.384,-0.038C0.423,-0.066 0.442,-0.108 0.442,-0.161C0.442,-0.204 0.429,-0.238 0.403,-0.263C0.377,-0.288 0.338,-0.304 0.286,-0.311L0.225,-0.32C0.202,-0.323 0.185,-0.329 0.175,-0.338C0.164,-0.347 0.159,-0.359 0.159,-0.374C0.159,-0.391 0.166,-0.404 0.179,-0.414C0.192,-0.424 0.212,-0.429 0.237,-0.429C0.262,-0.429 0.282,-0.424 0.297,-0.414C0.311,-0.404 0.318,-0.39 0.318,-0.372L0.318,-0.369L0.433,-0.369L0.433,-0.375C0.433,-0.404 0.425,-0.43 0.409,-0.453C0.392,-0.476 0.369,-0.494 0.34,-0.507C0.31,-0.52 0.276,-0.526 0.237,-0.526C0.18,-0.526 0.134,-0.512 0.098,-0.483C0.061,-0.454 0.043,-0.414 0.043,-0.365C0.043,-0.322 0.055,-0.288 0.08,-0.265C0.105,-0.242 0.143,-0.226 0.195,-0.217L0.25,-0.208C0.277,-0.204 0.296,-0.198 0.307,-0.189C0.318,-0.18 0.324,-0.168 0.324,-0.152C0.324,-0.133 0.316,-0.118 0.301,-0.109C0.286,-0.099 0.264,-0.094 0.237,-0.094C0.212,-0.094 0.191,-0.1 0.176,-0.111C0.16,-0.122 0.152,-0.137 0.152,-0.156L0.152,-0.158L0.036,-0.158L0.036,-0.154C0.036,-0.105 0.054,-0.067 0.09,-0.038Z" style="fill:white;fill-rule:nonzero;"/>
                </g>
                <g transform="matrix(14.4,0,0,14.4,46.1411,68.6504)">
                    <path d="M0.22,-0.433L0.32,-0.433L0.32,-0.52L0.22,-0.52L0.22,-0.665L0.097,-0.622L0.097,-0.52L0.025,-0.52L0.025,-0.433L0.097,-0.433L0.097,-0.15C0.097,-0.104 0.111,-0.068 0.139,-0.041C0.166,-0.014 0.204,-0 0.251,-0L0.31,-0L0.31,-0.105L0.271,-0.105C0.237,-0.105 0.22,-0.123 0.22,-0.158L0.22,-0.433Z" style="fill:white;fill-rule:nonzero;"/>
                </g>
                <g transform="matrix(14.4,0,0,14.4,51.1824,68.6504)">
                    <path d="M0.054,-0.52L0.054,-0L0.178,-0L0.178,-0.312C0.178,-0.347 0.187,-0.375 0.206,-0.394C0.224,-0.413 0.248,-0.422 0.278,-0.422C0.296,-0.422 0.317,-0.418 0.34,-0.411L0.34,-0.527C0.327,-0.53 0.313,-0.531 0.298,-0.531C0.271,-0.531 0.247,-0.526 0.226,-0.515C0.205,-0.504 0.188,-0.488 0.175,-0.466L0.175,-0.52L0.054,-0.52Z" style="fill:white;fill-rule:nonzero;"/>
                </g>
                <g transform="matrix(14.4,0,0,14.4,56.3821,68.6504)">
                    <path d="M0.059,-0.52L0.059,-0L0.182,-0L0.182,-0.52L0.059,-0.52ZM0.057,-0.69L0.057,-0.591L0.183,-0.591L0.183,-0.69L0.057,-0.69Z" style="fill:white;fill-rule:nonzero;"/>
                </g>
                <g transform="matrix(14.4,0,0,14.4,59.8971,68.6504)">
                    <path d="M0.102,-0.047C0.139,-0.012 0.191,0.006 0.256,0.006C0.32,0.006 0.37,-0.011 0.406,-0.044C0.442,-0.077 0.46,-0.122 0.46,-0.179L0.46,-0.186L0.342,-0.186L0.342,-0.18C0.342,-0.156 0.335,-0.137 0.32,-0.124C0.305,-0.111 0.284,-0.104 0.258,-0.104C0.229,-0.104 0.207,-0.112 0.192,-0.129C0.176,-0.146 0.168,-0.174 0.168,-0.213L0.168,-0.307C0.168,-0.38 0.198,-0.416 0.258,-0.416C0.284,-0.416 0.305,-0.409 0.32,-0.395C0.335,-0.381 0.342,-0.362 0.342,-0.337L0.342,-0.331L0.46,-0.331L0.46,-0.341C0.46,-0.399 0.442,-0.444 0.406,-0.477C0.37,-0.51 0.32,-0.526 0.256,-0.526C0.191,-0.526 0.139,-0.508 0.102,-0.473C0.064,-0.438 0.045,-0.383 0.045,-0.309L0.045,-0.212C0.045,-0.137 0.064,-0.082 0.102,-0.047Z" style="fill:white;fill-rule:nonzero;"/>
                </g>
                <g transform="matrix(14.4,0,0,14.4,66.9256,68.6504)">
                    <path d="M0.22,-0.433L0.32,-0.433L0.32,-0.52L0.22,-0.52L0.22,-0.665L0.097,-0.622L0.097,-0.52L0.025,-0.52L0.025,-0.433L0.097,-0.433L0.097,-0.15C0.097,-0.104 0.111,-0.068 0.139,-0.041C0.166,-0.014 0.204,-0 0.251,-0L0.31,-0L0.31,-0.105L0.271,-0.105C0.237,-0.105 0.22,-0.123 0.22,-0.158L0.22,-0.433Z" style="fill:white;fill-rule:nonzero;"/>
                </g>
                <g transform="matrix(14.4,0,0,14.4,75.4543,68.6504)">
                    <path d="M0.059,-0.69L0.059,-0L0.492,-0L0.492,-0.114L0.19,-0.114L0.19,-0.69L0.059,-0.69Z" style="fill:white;fill-rule:nonzero;"/>
                </g>
                <g transform="matrix(14.4,0,0,14.4,82.6412,68.6504)">
                    <path d="M0.059,-0.52L0.059,-0L0.182,-0L0.182,-0.52L0.059,-0.52ZM0.057,-0.69L0.057,-0.591L0.183,-0.591L0.183,-0.69L0.057,-0.69Z" style="fill:white;fill-rule:nonzero;"/>
                </g>
                <g transform="matrix(14.4,0,0,14.4,86.1561,68.6504)">
                    <path d="M0.054,-0.52L0.054,-0L0.178,-0L0.178,-0.324C0.178,-0.353 0.186,-0.376 0.202,-0.392C0.217,-0.408 0.237,-0.416 0.261,-0.416C0.286,-0.416 0.305,-0.408 0.32,-0.392C0.335,-0.376 0.342,-0.353 0.342,-0.324L0.342,-0L0.466,-0L0.466,-0.339C0.466,-0.397 0.451,-0.443 0.422,-0.476C0.393,-0.509 0.351,-0.526 0.298,-0.526C0.275,-0.526 0.252,-0.522 0.231,-0.513C0.209,-0.504 0.19,-0.49 0.175,-0.473L0.175,-0.52L0.054,-0.52Z" style="fill:white;fill-rule:nonzero;"/>
                </g>
                <g transform="matrix(14.4,0,0,14.4,93.6886,68.6504)">
                    <path d="M0.168,-0.223L0.472,-0.223L0.472,-0.292C0.472,-0.369 0.453,-0.428 0.415,-0.467C0.376,-0.506 0.324,-0.526 0.259,-0.526C0.192,-0.526 0.14,-0.507 0.102,-0.468C0.064,-0.429 0.045,-0.37 0.045,-0.292L0.045,-0.229C0.045,-0.149 0.065,-0.09 0.104,-0.052C0.143,-0.013 0.196,0.006 0.263,0.006C0.326,0.006 0.376,-0.009 0.413,-0.039C0.45,-0.069 0.468,-0.109 0.468,-0.158L0.468,-0.163L0.35,-0.163L0.349,-0.16C0.348,-0.141 0.34,-0.127 0.326,-0.117C0.312,-0.106 0.293,-0.101 0.268,-0.101C0.236,-0.101 0.211,-0.109 0.194,-0.126C0.177,-0.143 0.168,-0.17 0.168,-0.209L0.168,-0.223ZM0.192,-0.395C0.207,-0.412 0.23,-0.42 0.259,-0.42C0.318,-0.42 0.348,-0.387 0.348,-0.321L0.348,-0.308L0.168,-0.308L0.168,-0.311C0.168,-0.35 0.176,-0.378 0.192,-0.395Z" style="fill:white;fill-rule:nonzero;"/>
                </g>
            </g>
        </g>
    </g>
</svg>
