<svg width="500" height="500" viewBox="0 0 500 500" fill="none" xmlns="http://www.w3.org/2000/svg">
<path fill-rule="evenodd" clip-rule="evenodd" d="M73.2235 426.777C38.2603 391.814 14.45 347.268 4.80379 298.773C-4.84245 250.277 0.10823 200.011 19.0301 154.329C37.9522 108.648 69.9952 69.603 111.107 42.1326C152.22 14.6622 200.555 0 250 0C299.445 0 347.78 14.6622 388.893 42.1326C430.005 69.603 462.048 108.648 480.97 154.329C499.892 200.011 504.843 250.277 495.196 298.773C485.55 347.268 461.74 391.814 426.777 426.777L417.938 417.938C451.153 384.723 473.773 342.404 482.937 296.334C492.101 250.263 487.397 202.51 469.421 159.113C451.446 115.715 421.005 78.6228 381.948 52.5259C342.891 26.4291 296.973 12.5 250 12.5C203.027 12.5 157.109 26.4291 118.052 52.5259C78.9954 78.6228 48.5545 115.715 30.5787 159.113C12.6029 202.51 7.89949 250.263 17.0636 296.334C26.2276 342.404 48.8472 384.723 82.0623 417.938L73.2235 426.777ZM143.739 387H118.739L64.6473 500H89.6473L143.739 387ZM382 387H357L411.092 500H436.092L382 387ZM131.265 84C128.504 84 126.265 86.2386 126.265 89V156.75H110C107.239 156.75 105 158.985 105 161.746V177.122C105 179.826 106.285 183.656 107.308 186.275C108.014 188.085 109.786 189.208 111.729 189.208H126.265V327.469C126.265 330.231 128.504 332.469 131.265 332.469H145.292V358.285C145.292 363.807 149.77 368.285 155.292 368.285H175.585C181.107 368.285 185.585 363.807 185.585 358.285V332.469H316.535V358.285C316.535 363.807 321.012 368.285 326.535 368.285H346.827C352.35 368.285 356.827 363.807 356.827 358.285V332.469H369.735C372.496 332.469 374.735 330.231 374.735 327.469V189.208H389.271C391.214 189.208 392.986 188.085 393.692 186.275C394.715 183.656 396 179.826 396 177.122V161.746C396 158.985 393.762 156.75 391 156.75H374.735V89C374.735 86.2386 372.496 84 369.735 84H131.265ZM150.292 141.081C147.531 141.081 145.292 143.319 145.292 146.081V264.075C145.292 266.55 147.075 268.644 149.526 268.981C163.232 270.86 208.001 276.508 251.06 276.508C294.119 276.508 338.887 270.86 352.593 268.981C355.045 268.644 356.827 266.55 356.827 264.075V146.081C356.827 143.319 354.588 141.081 351.827 141.081H150.292ZM148.65 108.027C148.65 105.266 150.889 103.027 153.65 103.027H348.469C351.231 103.027 353.469 105.266 353.469 108.027V120.412C353.469 123.173 351.231 125.412 348.469 125.412H153.65C150.889 125.412 148.65 123.173 148.65 120.412V108.027ZM352.985 292.177C354.936 292.177 356.368 294.011 355.895 295.905L352.918 307.812C352.584 309.148 351.384 310.085 350.008 310.085H311.7C310.043 310.085 308.7 308.741 308.7 307.085V295.177C308.7 293.52 310.043 292.177 311.7 292.177H352.985ZM146.224 295.905C145.751 294.011 147.183 292.177 149.135 292.177H190.419C192.076 292.177 193.419 293.52 193.419 295.177V307.085C193.419 308.741 192.076 310.085 190.419 310.085H152.112C150.735 310.085 149.535 309.148 149.201 307.812L146.224 295.905ZM239.186 428L241 387H259L260.814 428H239.186ZM236 500L238.522 443H261.478L264 500H236Z" fill="black"/>
</svg>
