<svg width="500" height="495" viewBox="0 0 500 495" fill="none" xmlns="http://www.w3.org/2000/svg">
<path fill-rule="evenodd" clip-rule="evenodd" d="M40.0989 385.799C44.5791 384.789 49.0624 384.01 53.5472 383.464C35.7592 357.28 23.2979 327.675 17.0636 296.334C7.89966 250.263 12.6029 202.51 30.5787 159.113C48.5546 115.715 78.9955 78.6228 118.052 52.526C157.109 26.4291 203.027 12.5 250 12.5C296.973 12.5 342.891 26.4291 381.948 52.526C421.005 78.6228 451.446 115.715 469.422 159.113C487.397 202.51 492.101 250.263 482.937 296.334C474.21 340.203 453.284 380.67 422.626 413.115C428.208 413.593 433.788 413.626 439.37 413.215C467.476 380.605 486.757 341.201 495.196 298.773C504.843 250.277 499.892 200.011 480.97 154.329C462.048 108.648 430.005 69.603 388.893 42.1326C347.78 14.6622 299.445 0 250 0C200.555 0 152.22 14.6622 111.108 42.1326C69.9952 69.603 37.9522 108.648 19.0303 154.329C0.10828 200.011 -4.84253 250.277 4.80384 298.773C10.9967 329.906 23.0272 359.412 40.0989 385.799ZM249.013 199.199C249.665 199.068 250.336 199.067 250.987 199.198L408.946 230.916C412.064 231.542 413.812 234.881 412.552 237.8L347.788 387.748C313.471 377.975 278.928 381.852 244.791 399.38C217.098 413.599 189.786 417.079 162.28 409.82L88.4277 237.786C87.1759 234.87 88.9218 231.541 92.0321 230.913L249.013 199.199ZM124.041 437.62C87.3745 418.793 51.3757 418.793 14.7097 437.62L3.29053 415.38C47.1245 392.873 91.6257 392.873 135.46 415.38C172.126 434.207 208.125 434.207 244.791 415.38C288.625 392.873 333.126 392.873 376.96 415.38C413.626 434.207 449.625 434.207 486.291 415.38L497.71 437.62C453.876 460.127 409.375 460.127 365.541 437.62C328.875 418.793 292.876 418.793 256.21 437.62C212.376 460.127 167.875 460.127 124.041 437.62ZM14.7097 477.62C51.3757 458.793 87.3745 458.793 124.041 477.62C167.875 500.127 212.376 500.127 256.21 477.62C292.876 458.793 328.875 458.793 365.541 477.62C409.375 500.127 453.876 500.127 497.71 477.62L486.291 455.38C449.625 474.207 413.626 474.207 376.96 455.38C333.126 432.873 288.625 432.873 244.791 455.38C208.125 474.207 172.126 474.207 135.46 455.38C91.6257 432.873 47.1245 432.873 3.29053 455.38L14.7097 477.62ZM153 138C153 135.239 155.239 133 158 133H343C345.762 133 348 135.239 348 138V201.574C348 204.731 345.111 207.098 342.016 206.476L250.987 188.198C250.336 188.067 249.665 188.068 249.013 188.199L158.99 206.386C155.894 207.012 153 204.644 153 201.485V138ZM166 146C166 143.239 168.239 141 171 141H238C240.762 141 243 143.239 243 146V165C243 167.761 240.762 170 238 170H171C168.239 170 166 167.761 166 165V146ZM262 141C259.239 141 257 143.239 257 146V165C257 167.761 259.239 170 262 170H329C331.762 170 334 167.761 334 165V146C334 143.239 331.762 141 329 141H262ZM240 89C237.239 89 235 91.2386 235 94V127H265V94C265 91.2386 262.762 89 260 89H240Z" fill="black"/>
</svg>
