<svg width="500" height="482" viewBox="0 0 500 482" fill="none" xmlns="http://www.w3.org/2000/svg">
<path fill-rule="evenodd" clip-rule="evenodd" d="M73.2234 426.777C38.2603 391.814 14.4501 347.268 4.80379 298.773C-4.84251 250.277 0.108321 200.011 19.0302 154.329C37.9521 108.648 69.9953 69.603 111.108 42.1326C122.905 34.2495 135.298 27.4212 148.141 21.6914L152.996 33.213C140.88 38.6344 129.187 45.0857 118.052 52.526C78.9955 78.6228 48.5545 115.715 30.5787 159.113C12.6029 202.51 7.89962 250.263 17.0636 296.334C26.2276 342.404 48.8473 384.723 82.0623 417.938L73.2234 426.777ZM180.467 22.9067L175.589 11.3309C199.55 3.86045 224.629 0 250 0C275.114 0 299.942 3.7825 323.682 11.1045L318.802 22.684C307.783 19.3488 296.521 16.8147 285.105 15.1085L259.838 75.0672C271.997 75.2335 283.947 75.7074 295.256 76.4748C309.605 77.4485 322.642 78.8757 333.623 80.6748C344.605 82.4739 353.316 84.6098 359.259 86.9605C365.202 89.3112 367.522 91.8478 368.261 94.375L386 300.761V371.576C386 374.338 383.761 376.576 381 376.576H119C116.239 376.576 114 374.338 114 371.576V300.761L131.739 94.375C132.478 91.8478 134.798 89.3112 140.741 86.9605C146.684 84.6098 155.395 82.4739 166.377 80.6748C177.359 78.8757 190.395 77.4485 204.744 76.4749C216.181 75.6987 228.273 75.2228 240.575 75.0616L215.286 15.0506C203.483 16.7945 191.844 19.423 180.467 22.9067ZM250 12.5C256.302 12.5 262.585 12.7507 268.835 13.2479L250.207 57.4516L231.566 13.2163C237.684 12.7401 243.833 12.5 250 12.5ZM346.309 32.9035C358.673 38.3883 370.6 44.9436 381.948 52.526C421.005 78.6228 451.446 115.715 469.422 159.113C487.397 202.51 492.101 250.263 482.937 296.334C473.773 342.404 451.153 384.723 417.938 417.938L426.777 426.777C461.74 391.814 485.55 347.268 495.196 298.773C504.843 250.277 499.892 200.011 480.97 154.329C462.048 108.648 430.005 69.603 388.893 42.1326C376.882 34.1074 364.255 27.1753 351.164 21.3826L346.309 32.9035ZM182.739 390H157.739L119 481.928H144L182.739 390ZM318 390H343L381.739 481.928H356.739L318 390ZM296.5 351C302.851 351 308 345.851 308 339.5C308 333.149 302.851 328 296.5 328C290.149 328 285 333.149 285 339.5C285 345.851 290.149 351 296.5 351ZM184 339.5C184 345.851 178.851 351 172.5 351C166.149 351 161 345.851 161 339.5C161 333.149 166.149 328 172.5 328C178.851 328 184 333.149 184 339.5ZM204.5 351C210.851 351 216 345.851 216 339.5C216 333.149 210.851 328 204.5 328C198.149 328 193 333.149 193 339.5C193 345.851 198.149 351 204.5 351ZM340 339.5C340 345.851 334.851 351 328.5 351C322.149 351 317 345.851 317 339.5C317 333.149 322.149 328 328.5 328C334.851 328 340 333.149 340 339.5ZM171.578 130C165.834 130 161.271 134.827 161.593 140.561L170.47 298.561C170.767 303.857 175.149 308 180.454 308H320.546C325.851 308 330.233 303.857 330.53 298.561L339.407 140.561C339.729 134.827 335.166 130 329.422 130H171.578ZM216 109.5C216 105.358 219.358 102 223.5 102H277.5C281.642 102 285 105.358 285 109.5C285 113.642 281.642 117 277.5 117H223.5C219.358 117 216 113.642 216 109.5Z" fill="white"/>
</svg>
