<svg width="500" height="482" viewBox="0 0 500 482" fill="none" xmlns="http://www.w3.org/2000/svg">
<path fill-rule="evenodd" clip-rule="evenodd" d="M4.80379 298.773C14.45 347.268 38.2603 391.814 73.2235 426.777L82.0623 417.938C48.8472 384.723 26.2276 342.404 17.0636 296.334C7.89949 250.263 12.6029 202.51 30.5787 159.113C48.5545 115.715 78.9954 78.6228 118.052 52.5259C157.109 26.4291 203.027 12.5 250 12.5C296.973 12.5 342.891 26.4291 381.948 52.5259C421.005 78.6228 451.446 115.715 469.421 159.113C487.397 202.51 492.101 250.263 482.937 296.334C473.773 342.404 451.153 384.723 417.938 417.938L426.777 426.777C461.74 391.814 485.55 347.268 495.196 298.773C504.843 250.277 499.892 200.011 480.97 154.329C462.048 108.648 430.005 69.603 388.893 42.1326C347.78 14.6622 299.445 0 250 0C200.555 0 152.22 14.6622 111.107 42.1326C69.9952 69.603 37.9522 108.648 19.0301 154.329C0.10823 200.011 -4.84245 250.277 4.80379 298.773ZM157.739 390H182.739L144 481.928H119L157.739 390ZM318 390H343L381.739 481.928H356.739L318 390ZM374.523 86.9605C381.296 89.3112 383.94 91.8478 384.783 94.375L405 300.761V371.576C405 374.338 402.761 376.576 400 376.576H99.9998C97.2384 376.576 94.9998 374.338 94.9998 371.576V300.761L115.217 94.375C116.06 91.8478 118.703 89.3112 125.477 86.9605C132.25 84.6098 142.178 82.4739 154.694 80.6748C167.21 78.8757 182.068 77.4485 198.421 76.4749C214.773 75.5012 232.3 75 250 75C267.7 75 285.226 75.5012 301.579 76.4749C317.931 77.4485 332.79 78.8757 345.305 80.6748C357.821 82.4739 367.749 84.6098 374.523 86.9605ZM130.756 114.81C131.013 112.214 133.235 110.049 135.857 109.838L208.009 104.037C210.745 103.817 212.935 105.798 212.935 108.493V294.539C212.935 297.47 210.363 300.016 207.401 300.016H117.394C114.638 300.016 112.628 297.797 112.9 295.056L130.756 114.81ZM363.959 109.838C366.582 110.049 368.803 112.214 369.06 114.81L386.917 295.056C387.188 297.797 385.178 300.016 382.422 300.016H292.415C289.454 300.016 286.882 297.47 286.882 294.539V108.493C286.882 105.798 289.072 103.817 291.808 104.037L363.959 109.838ZM130.5 348C136.851 348 142 342.851 142 336.5C142 330.149 136.851 325 130.5 325C124.149 325 119 330.149 119 336.5C119 342.851 124.149 348 130.5 348ZM350 336.5C350 342.851 344.851 348 338.5 348C332.148 348 327 342.851 327 336.5C327 330.149 332.148 325 338.5 325C344.851 325 350 330.149 350 336.5ZM370.5 348C376.851 348 382 342.851 382 336.5C382 330.149 376.851 325 370.5 325C364.148 325 359 330.149 359 336.5C359 342.851 364.148 348 370.5 348ZM174 336.5C174 342.851 168.851 348 162.5 348C156.149 348 151 342.851 151 336.5C151 330.149 156.149 325 162.5 325C168.851 325 174 330.149 174 336.5Z" fill="black"/>
</svg>
